# xmcd
#
# Track frame offsets:
#	150
#	18955
#	34498
#	55968
#	73318
#	90789
#	109858
#	126604
#	142499
#	162888
#
# Disc length: 2407 seconds
#
# Revision: 0
# Processed by: cddbd v1.5.2PL0 Copyright (c) Steve Scherf et al.
# Submitted via: EasyCDDAExtractor 16.1.0.1
#
DISCID=9509650a
DTITLE=Hydra - Hydra อัศเจรีย์
DYEAR=1900
DGENRE=Blues
TTITLE0=ไอ้มดแดง
TTITLE1=น.ส.หุ่นยนต์
TTITLE2=ไว้ใจ
TTITLE3=ตัวปลอม
TTITLE4=เครื่องบินตามหมา
TTITLE5=นายแม้น
TTITLE6=ไกลเท่าเดิม
TTITLE7=ชุดแดง
TTITLE8=ของรักของหวง
TTITLE9=ดีกแล้ว
EXTD=
EXTT0=
EXTT1=
EXTT2=
EXTT3=
EXTT4=
EXTT5=
EXTT6=
EXTT7=
EXTT8=
EXTT9=
PLAYORDER=
